<svg xmlns="http://www.w3.org/2000/svg" version="1.1" xmlns:xlink="http://www.w3.org/1999/xlink" xmlns:svgjs="http://svgjs.dev/svgjs" width="1000" height="191" viewBox="0 0 1000 191"><g transform="matrix(1,0,0,1,-0.6060493924039179,-0.1645497199238406)"><svg viewBox="0 0 396 76" data-background-color="#ffffff" preserveAspectRatio="xMidYMid meet" height="191" width="1000" xmlns="http://www.w3.org/2000/svg" xmlns:xlink="http://www.w3.org/1999/xlink"><g id="tight-bounds" transform="matrix(1,0,0,1,0.23999559793890057,0.06547528122624158)"><svg viewBox="0 0 395.52 75.86904943754752" height="75.86904943754752" width="395.52"><g><svg viewBox="0 0 395.52 75.86904943754752" height="75.86904943754752" width="395.52"><g transform="matrix(1,0,0,1,0,46.89011626771306)"><svg viewBox="0 0 395.52 28.978933169834455" height="28.978933169834455" width="395.52"><g><svg viewBox="0 0 395.52 28.978933169834455" height="28.978933169834455" width="395.52"><g><svg viewBox="0 0 395.52 28.978933169834455" height="28.978933169834455" width="395.52"><g transform="matrix(1,0,0,1,0,0)"><svg width="395.52" viewBox="2.700000047683716 -35.45000076293945 489.2699890136719 35.85000228881836" height="28.978933169834455" data-palette-color="#3d9970"><path d="M35.55-24.75L32.95-24.75Q31.45-28.7 27.98-31.05 24.5-33.4 19.75-33.4L19.75-33.4Q15.6-33.4 12.25-31.45 8.9-29.5 6.95-25.9 5-22.3 5-17.5L5-17.5Q5-12.7 6.95-9.1 8.9-5.5 12.25-3.58 15.6-1.65 19.75-1.65L19.75-1.65Q23.75-1.65 27-3.45 30.25-5.25 32.2-8.58 34.15-11.9 34.35-16.35L34.35-16.35 18.7-16.35 18.7-18.25 36.65-18.25 36.65-16.75Q36.5-11.85 34.3-7.95 32.1-4.05 28.3-1.85 24.5 0.35 19.75 0.35L19.75 0.35Q14.9 0.35 11-1.93 7.1-4.2 4.9-8.28 2.7-12.35 2.7-17.5L2.7-17.5Q2.7-22.7 4.9-26.78 7.1-30.85 11-33.13 14.9-35.4 19.75-35.4L19.75-35.4Q25.4-35.4 29.53-32.58 33.65-29.75 35.55-24.75L35.55-24.75ZM59.1 0.4Q54.25 0.4 50.35-1.88 46.45-4.15 44.25-8.25 42.05-12.35 42.05-17.5L42.05-17.5Q42.05-22.7 44.25-26.78 46.45-30.85 50.35-33.13 54.25-35.4 59.1-35.4L59.1-35.4Q63.95-35.4 67.85-33.13 71.75-30.85 73.95-26.78 76.15-22.7 76.15-17.5L76.15-17.5Q76.15-12.35 73.95-8.25 71.75-4.15 67.85-1.88 63.95 0.4 59.1 0.4L59.1 0.4ZM59.1-1.6Q63.25-1.6 66.6-3.55 69.95-5.5 71.87-9.1 73.8-12.7 73.8-17.5L73.8-17.5Q73.8-22.35 71.87-25.95 69.95-29.55 66.6-31.5 63.25-33.45 59.1-33.45L59.1-33.45Q54.95-33.45 51.6-31.5 48.25-29.55 46.3-25.95 44.35-22.35 44.35-17.5L44.35-17.5Q44.35-12.7 46.3-9.1 48.25-5.5 51.6-3.55 54.95-1.6 59.1-1.6L59.1-1.6ZM98.59 0.4Q93.75 0.4 89.84-1.88 85.94-4.15 83.75-8.25 81.55-12.35 81.55-17.5L81.55-17.5Q81.55-22.7 83.75-26.78 85.94-30.85 89.84-33.13 93.75-35.4 98.59-35.4L98.59-35.4Q103.44-35.4 107.34-33.13 111.25-30.85 113.44-26.78 115.65-22.7 115.65-17.5L115.65-17.5Q115.65-12.35 113.44-8.25 111.25-4.15 107.34-1.88 103.44 0.4 98.59 0.4L98.59 0.4ZM98.59-1.6Q102.75-1.6 106.09-3.55 109.44-5.5 111.37-9.1 113.3-12.7 113.3-17.5L113.3-17.5Q113.3-22.35 111.37-25.95 109.44-29.55 106.09-31.5 102.75-33.45 98.59-33.45L98.59-33.45Q94.44-33.45 91.09-31.5 87.75-29.55 85.8-25.95 83.84-22.35 83.84-17.5L83.84-17.5Q83.84-12.7 85.8-9.1 87.75-5.5 91.09-3.55 94.44-1.6 98.59-1.6L98.59-1.6ZM132.29-35.1Q141.19-35.1 146.02-30.45 150.84-25.8 150.84-17.5L150.84-17.5Q150.84-9.2 146.02-4.6 141.19 0 132.29 0L132.29 0 122.44 0 122.44-35.1 132.29-35.1ZM132.29-1.9Q140.24-1.9 144.39-6.03 148.54-10.15 148.54-17.5L148.54-17.5Q148.54-24.9 144.39-29.05 140.24-33.2 132.29-33.2L132.29-33.2 124.69-33.2 124.69-1.9 132.29-1.9ZM188.04-34.35L190.39-34.35 190.39 0 188.14 0 188.14-29.65 174.94 0 173.14 0 159.89-29.65 159.89 0 157.64 0 157.64-34.35 160.04-34.35 174.04-2.95 188.04-34.35ZM221.89 0L218.54-9 201.89-9 198.54 0 196.09 0 208.99-34.3 211.49-34.3 224.34 0 221.89 0ZM202.59-10.9L217.84-10.9 210.24-31.35 202.59-10.9ZM255.09-35.05L255.09 0 252.84 0 232.24-31.4 232.24 0 229.99 0 229.99-35.05 232.24-35.05 252.84-3.75 252.84-35.05 255.09-35.05ZM276.03-17.5Q276.03-22.7 278.21-26.78 280.38-30.85 284.21-33.15 288.03-35.45 292.78-35.45L292.78-35.45Q298.78-35.45 302.88-32.65 306.98-29.85 308.88-24.8L308.88-24.8 306.28-24.8Q304.78-28.8 301.31-31.13 297.83-33.45 292.78-33.45L292.78-33.45Q288.73-33.45 285.43-31.53 282.13-29.6 280.23-25.98 278.33-22.35 278.33-17.5L278.33-17.5Q278.33-12.7 280.23-9.13 282.13-5.55 285.43-3.6 288.73-1.65 292.78-1.65L292.78-1.65Q297.83-1.65 301.31-3.98 304.78-6.3 306.28-10.3L306.28-10.3 308.88-10.3Q306.98-5.25 302.88-2.45 298.78 0.35 292.78 0.35L292.78 0.35Q288.03 0.35 284.21-1.93 280.38-4.2 278.21-8.28 276.03-12.35 276.03-17.5L276.03-17.5ZM339.18 0L335.83-9 319.18-9 315.83 0 313.38 0 326.28-34.3 328.78-34.3 341.63 0 339.18 0ZM319.88-10.9L335.13-10.9 327.53-31.35 319.88-10.9ZM377.68-34.35L380.03-34.35 380.03 0 377.78 0 377.78-29.65 364.58 0 362.78 0 349.53-29.65 349.53 0 347.28 0 347.28-34.35 349.68-34.35 363.68-2.95 377.68-34.35ZM409.52-25.2Q409.52-20.55 406.62-17.98 403.72-15.4 398.02-15.4L398.02-15.4 390.52-15.4 390.52 0 388.27 0 388.27-35.1 398.02-35.1Q403.82-35.1 406.67-32.43 409.52-29.75 409.52-25.2L409.52-25.2ZM398.02-17.4Q407.27-17.4 407.27-25.2L407.27-25.2Q407.27-29.05 405.07-31.08 402.87-33.1 398.02-33.1L398.02-33.1 390.52-33.1 390.52-17.4 398.02-17.4ZM415.57-35.1L417.82-35.1 417.82 0 415.57 0 415.57-35.1ZM451.17-35.05L451.17 0 448.92 0 428.32-31.4 428.32 0 426.07 0 426.07-35.05 428.32-35.05 448.92-3.75 448.92-35.05 451.17-35.05ZM490.87-24.75L488.27-24.75Q486.77-28.7 483.29-31.05 479.82-33.4 475.07-33.4L475.07-33.4Q470.92-33.4 467.57-31.45 464.22-29.5 462.27-25.9 460.32-22.3 460.32-17.5L460.32-17.5Q460.32-12.7 462.27-9.1 464.22-5.5 467.57-3.58 470.92-1.65 475.07-1.65L475.07-1.65Q479.07-1.65 482.32-3.45 485.57-5.25 487.52-8.58 489.47-11.9 489.67-16.35L489.67-16.35 474.02-16.35 474.02-18.25 491.97-18.25 491.97-16.75Q491.82-11.85 489.62-7.95 487.42-4.05 483.62-1.85 479.82 0.35 475.07 0.35L475.07 0.35Q470.22 0.35 466.32-1.93 462.42-4.2 460.22-8.28 458.02-12.35 458.02-17.5L458.02-17.5Q458.02-22.7 460.22-26.78 462.42-30.85 466.32-33.13 470.22-35.4 475.07-35.4L475.07-35.4Q480.72-35.4 484.84-32.58 488.97-29.75 490.87-24.75L490.87-24.75Z" opacity="1" transform="matrix(1,0,0,1,0,0)" fill="#3d9970" class="undefined-text-0" data-fill-palette-color="primary" id="text-0"></path></svg></g></svg></g></svg></g></svg></g><g transform="matrix(1,0,0,1,152.70162137821836,0)"><svg viewBox="0 0 90.11675724356324 40.04888564071122" height="40.04888564071122" width="90.11675724356324"><g><svg xmlns="http://www.w3.org/2000/svg" xmlns:xlink="http://www.w3.org/1999/xlink" version="1.1" x="8" y="0" viewBox="4.517879009246826 14.166999816894531 89.35712432861328 48.28399658203125" enable-background="new 0 0 100 100" xml:space="preserve" height="40.04888564071122" width="74.11675724356324" class="icon-icon-0" data-fill-palette-color="accent" id="icon-0"><path d="M54.167 22.5H42.833c-1.654 0-3 1.346-3 3v6.667c0 1.654 1.346 3 3 3h11.334c1.654 0 3-1.346 3-3V25.5C57.167 23.846 55.821 22.5 54.167 22.5zM55.167 32.167c0 0.551-0.448 1-1 1H42.833c-0.552 0-1-0.449-1-1V25.5c0-0.551 0.448-1 1-1h11.334c0.552 0 1 0.449 1 1V32.167z" fill="#3d9970" data-fill-palette-color="accent"></path><path d="M92.875 40.75h-4.208V17.167c0-1.654-1.346-3-3-3h-50.5c-1.654 0-3 1.346-3 3v14.73c-1.053-1.804-1.753-3.252-1.915-4.127-0.008-0.044-0.031-0.082-0.045-0.124-0.015-0.044-0.026-0.086-0.047-0.127-0.036-0.074-0.083-0.139-0.136-0.202-0.024-0.029-0.042-0.061-0.069-0.086-0.086-0.082-0.184-0.151-0.294-0.198-0.012-0.005-0.026-0.005-0.038-0.01-0.089-0.034-0.182-0.061-0.28-0.068-0.015-0.001-0.026 0.004-0.041 0.004-0.012 0-0.021-0.007-0.033-0.007-0.032 0-0.06 0.016-0.092 0.019-0.085 0.008-0.166 0.021-0.244 0.049-0.039 0.014-0.075 0.031-0.111 0.05-0.074 0.037-0.141 0.082-0.202 0.136-0.03 0.025-0.059 0.049-0.085 0.078-0.055 0.061-0.098 0.129-0.137 0.203-0.019 0.036-0.042 0.067-0.057 0.106-0.005 0.012-0.014 0.021-0.018 0.033-1.896 5.506-16.183 25.629-23.52 33.126-0.281 0.288-0.363 0.716-0.207 1.087s0.52 0.612 0.922 0.612h47.5c0.404 0 0.77-0.244 0.924-0.617 0.155-0.374 0.069-0.804-0.217-1.09-1.398-1.398-4.987-5.761-8.95-10.911h5.332c0.479 2.915 3.01 5.148 6.06 5.148s5.58-2.233 6.06-5.148H67.5h9.667 8.5c1.654 0 3-1.346 3-3V46.75h4.208c0.553 0 1-0.448 1-1v-4C93.875 41.198 93.428 40.75 92.875 40.75zM28.269 32.263v28.188H7.827C14.306 53.288 23.984 39.841 28.269 32.263zM30.269 60.451V32.557c4.601 8.056 15.801 22.466 20.493 27.894H30.269zM56.167 52.982c-2.286 0-4.146-1.859-4.148-4.145 0-0.001 0.001-0.002 0.001-0.003s-0.001-0.002-0.001-0.003c0.002-2.286 1.862-4.145 4.148-4.145 2.287 0 4.148 1.861 4.148 4.148S58.454 52.982 56.167 52.982zM67.5 47.833c-0.552 0-1-0.449-1-1v-21c0-0.551 0.448-1 1-1h9.667c0.552 0 1 0.449 1 1v21c0 0.551-0.448 1-1 1H67.5zM86.667 46.833c0 0.551-0.448 1-1 1h-5.685c0.112-0.314 0.185-0.647 0.185-1v-21c0-1.654-1.346-3-3-3H67.5c-1.654 0-3 1.346-3 3v21c0 0.353 0.072 0.686 0.185 1h-2.458c-0.479-2.915-3.01-5.148-6.06-5.148s-5.58 2.233-6.06 5.148h-6.859c-3.253-4.291-6.594-8.906-9.081-12.72V17.167c0-0.551 0.448-1 1-1h50.5c0.552 0 1 0.449 1 1V41.75v4V46.833zM91.875 44.75h-3.208v-2h3.208V44.75z" fill="#3d9970" data-fill-palette-color="accent"></path><path d="M70.667 33.167c-0.965 0-1.75 0.785-1.75 1.75s0.785 1.75 1.75 1.75 1.75-0.785 1.75-1.75S71.632 33.167 70.667 33.167zM70.417 34.917c0-0.138 0.112-0.25 0.25-0.25s0.25 0.112 0.25 0.25C70.917 35.192 70.417 35.192 70.417 34.917z" fill="#3d9970" data-fill-palette-color="accent"></path></svg></g></svg></g><g><rect width="152.70162137821836" height="2.6133500995147028" y="36.435535541196515" x="242.81837862178162" fill="#3d9970" data-fill-palette-color="accent"></rect><rect width="152.70162137821836" height="2.6133500995147028" y="36.435535541196515" x="0" fill="#3d9970" data-fill-palette-color="accent"></rect><rect width="152.70162137821836" height="2.6133500995147028" y="31.208835342167113" x="242.81837862178162" fill="#3d9970" data-fill-palette-color="accent"></rect><rect width="152.70162137821836" height="2.6133500995147028" y="31.208835342167113" x="0" fill="#3d9970" data-fill-palette-color="accent"></rect></g></svg></g><defs></defs></svg><rect width="395.52" height="75.86904943754752" fill="none" stroke="none" visibility="hidden"></rect></g></svg></g></svg>